# xmcd
#
# Track frame offsets: 
#        150
#        21814
#        40249
#        61329
#        85171
#        110409
#        151674
#        181110
#
# Disc length: 2696 seconds
#
# Revision: 1
# Processed by: cddbd v1.5.2PL0 Copyright (c) Steve Scherf et al.
# Submitted via: ExactAudioCopy v1.0b6
#
DISCID=540a8608
DTITLE=Imperial Tiger Orchestra - Addis Abeba
DYEAR=2009
DGENRE=Afrique
TTITLE0=Bati (trad)
TTITLE1=Djemeregne
TTITLE2=Etu gela
TTITLE3=Harer dire dewa
TTITLE4=Selam temagwet
TTITLE5=Aha gedawo
TTITLE6=Emnete
TTITLE7=Bati
EXTD=YEAR: 2009
EXTT0=
EXTT1=
EXTT2=
EXTT3=
EXTT4=
EXTT5=
EXTT6=
EXTT7=
PLAYORDER=
